<svg width="105" height="92" viewBox="0 0 105 92" fill="none" xmlns="http://www.w3.org/2000/svg">
<g clip-path="url(#clip0_4_74)">
<path d="M82.0554 76H23.9446C21.4486 76 19.4253 73.9767 19.4253 71.4807V65.1938L86.5747 52.9917V71.4807C86.5747 73.9767 84.5512 76 82.0554 76Z" fill="#CDBFBA"/>
<path d="M69.7607 71.4807H23.9522C21.4521 71.4807 19.4253 69.4539 19.4253 66.9538V10.8199C19.4253 8.31978 21.4521 6.29301 23.9522 6.29301H82.0477C84.5478 6.29301 86.5745 8.31978 86.5745 10.8199V54.6667C86.5745 55.8673 83.8379 57.0187 82.9889 57.8677L72.9616 67.8951C72.1128 68.7441 70.9613 71.4807 69.7607 71.4807Z" fill="#F9F3F1"/>
<path d="M67.8826 71.4807C69.9311 71.4807 71.5916 69.8201 71.5916 67.7717V60.2298C71.5916 58.1814 73.2522 56.5208 75.3006 56.5208H82.8425C84.8909 56.5208 86.5515 54.8603 86.5515 52.8118V54.6457C86.5515 55.8464 86.0745 56.9977 85.2255 57.8468L72.9174 70.1549C72.0684 71.0039 70.917 71.4808 69.7164 71.4808H67.8826V71.4807Z" fill="#EFE2DD"/>
<path d="M86.5741 10.8117V22.4384H19.4259V10.8117C19.4259 8.31706 21.4491 6.2924 23.9453 6.2924H82.0548C84.5509 6.2924 86.5741 8.31706 86.5741 10.8117Z" fill="#8379C1"/>
<path d="M32.2186 14.1806C31.3566 14.1806 30.6248 14.1801 30.0011 14.1801C28.106 14.1801 26.5649 12.639 26.5649 10.7454V6.2924H28.8246V10.7454C28.8246 11.3932 29.3519 11.9205 30.0011 11.9205C30.6248 11.9205 32.8423 14.1806 32.2186 14.1806Z" fill="#6354B1"/>
<path d="M73.2627 14.1806C73.2627 14.1806 71.6693 14.1801 71.0442 14.1801C69.1506 14.1801 67.6095 12.639 67.6095 10.7454V6.2924H69.8691V10.7454C69.8691 11.3932 70.3964 11.9205 71.0442 11.9205C71.6693 11.9205 73.2627 13.5569 73.2627 14.1806Z" fill="#6354B1"/>
<path d="M33.9134 6.29301V3.43574C33.9134 2.78722 33.3858 2.25966 32.7373 2.25966H32.2186C31.5701 2.25966 31.0426 2.78722 31.0426 3.43574V10.745C31.0426 11.3935 31.5701 11.9211 32.2186 11.9211C32.8426 11.9211 33.3485 12.4269 33.3485 13.0509C33.3485 13.6749 32.8426 14.1807 32.2186 14.1807C30.3241 14.1807 28.7829 12.6395 28.7829 10.745V3.43574C28.7829 1.54124 30.3241 0 32.2186 0H32.7373C34.6318 0 36.1731 1.54124 36.1731 3.43574V6.29301H33.9134Z" fill="#554E56"/>
<path d="M74.9575 6.29301V3.43574C74.9575 2.78722 74.4299 2.25966 73.7814 2.25966H73.2627C72.6142 2.25966 72.0866 2.78722 72.0866 3.43574V10.745C72.0866 11.3935 72.6142 11.9211 73.2627 11.9211C73.8867 11.9211 74.3925 12.4269 74.3925 13.0509C74.3925 13.6749 73.8867 14.1807 73.2627 14.1807C71.3682 14.1807 69.827 12.6395 69.827 10.745V3.43574C69.827 1.54124 71.3682 0 73.2627 0H73.7814C75.6759 0 77.2171 1.54124 77.2171 3.43574V6.29301H74.9575Z" fill="#554E56"/>
<path d="M53.9897 33.8389L57.6261 41.2072C57.7869 41.5329 58.0976 41.7587 58.4571 41.811L66.5886 42.9925C67.4938 43.124 67.8553 44.2365 67.2002 44.8751L61.3162 50.6106C61.056 50.8641 60.9373 51.2294 60.9987 51.5875L62.3877 59.686C62.5424 60.5876 61.5959 61.2751 60.7863 60.8496L53.5134 57.0259C53.1919 56.8569 52.8078 56.8569 52.4861 57.0259L45.2132 60.8496C44.4035 61.2753 43.4571 60.5877 43.6118 59.686L45.0008 51.5875C45.0622 51.2294 44.9435 50.8641 44.6834 50.6106L38.7994 44.8751C38.1444 44.2365 38.5058 43.124 39.411 42.9925L47.5425 41.811C47.9019 41.7587 48.2127 41.5329 48.3734 41.2072L52.0098 33.8389C52.415 33.0186 53.5849 33.0186 53.9897 33.8389Z" fill="#FEC165"/>
</g>
<path d="M2 58L2.83014 60.0472L4 61.5L2.83014 62.9528L2 65L1.16986 62.9528L0 61.5L1.16986 60.0472L2 58Z" fill="#F7B548"/>
<path d="M10.5 75L11.5377 78.2171L13 80.5L11.5377 82.7829L10.5 86L9.46232 82.7829L8 80.5L9.46232 78.2171L10.5 75Z" fill="#F7B548"/>
<path d="M13 35L13.8301 37.0472L15 38.5L13.8301 39.9528L13 42L12.1699 39.9528L11 38.5L12.1699 37.0472L13 35Z" fill="#F7B548"/>
<path d="M100.5 44L101.538 46.6322L103 48.5L101.538 50.3678L100.5 53L99.4623 50.3678L98 48.5L99.4623 46.6322L100.5 44Z" fill="#F7B548"/>
<path d="M102.5 76L103.538 78.6322L105 80.5L103.538 82.3678L102.5 85L101.462 82.3678L100 80.5L101.462 78.6322L102.5 76Z" fill="#F7B548"/>
<path d="M66.5 83L67.1226 85.6322L68 87.5L67.1226 89.3678L66.5 92L65.8774 89.3678L65 87.5L65.8774 85.6322L66.5 83Z" fill="#F7B548"/>
<defs>
<clipPath id="clip0_4_74">
<rect width="76" height="76" fill="white" transform="translate(15)"/>
</clipPath>
</defs>
</svg>
